<svg width="30" height="30" viewBox="0 0 30 30" fill="none" xmlns="http://www.w3.org/2000/svg">
<path d="M8.45 27.5H21.55C25 27.5 26.375 25.3875 26.5375 22.8125L27.1875 12.4875C27.228 11.8473 27.1368 11.2056 26.9195 10.602C26.7022 9.99846 26.3634 9.44588 25.924 8.97844C25.4847 8.51099 24.9542 8.13862 24.3653 7.88433C23.7763 7.63004 23.1415 7.49923 22.5 7.5C21.7375 7.5 21.0375 7.0625 20.6875 6.3875L19.7875 4.575C19.2125 3.4375 17.7125 2.5 16.4375 2.5H13.575C12.2875 2.5 10.7875 3.4375 10.2125 4.575L9.3125 6.3875C8.9625 7.0625 8.2625 7.5 7.5 7.5C4.7875 7.5 2.6375 9.7875 2.8125 12.4875L3.4625 22.8125C3.6125 25.3875 5 27.5 8.45 27.5Z" stroke="#0B1775" stroke-width="1.5" stroke-linecap="round" stroke-linejoin="round"/>
<path opacity="0.4" d="M13.125 10H16.875M15 22.5C17.2375 22.5 19.0625 20.675 19.0625 18.4375C19.0625 16.2 17.2375 14.375 15 14.375C12.7625 14.375 10.9375 16.2 10.9375 18.4375C10.9375 20.675 12.7625 22.5 15 22.5Z" stroke="#0A0C2B" stroke-opacity="0.5" stroke-width="1.5" stroke-linecap="round" stroke-linejoin="round"/>
</svg>
