<svg width="22" height="22" viewBox="0 0 22 22" fill="none" xmlns="http://www.w3.org/2000/svg">
<path d="M15.968 13.2055C17.338 13.4355 18.848 13.1955 19.908 12.4855C21.318 11.5455 21.318 10.0055 19.908 9.0655C18.838 8.3555 17.308 8.1155 15.938 8.3555M5.99701 13.2055C4.62701 13.4355 3.11701 13.1955 2.05701 12.4855C0.647012 11.5455 0.647012 10.0055 2.05701 9.0655C3.12701 8.3555 4.65701 8.1155 6.02701 8.3555M16.998 5.9255C16.9351 5.9155 16.871 5.9155 16.808 5.9255C16.1406 5.90137 15.5088 5.61871 15.046 5.13727C14.5832 4.65582 14.3258 4.0133 14.328 3.3455C14.328 1.9155 15.478 0.765503 16.908 0.765503C17.5923 0.765503 18.2485 1.03732 18.7323 1.52117C19.2162 2.00501 19.488 2.66124 19.488 3.3455C19.4862 4.01378 19.226 4.65546 18.7619 5.13631C18.2978 5.61717 17.6658 5.89995 16.998 5.9255V5.9255ZM4.96701 5.9255C5.02701 5.9155 5.09701 5.9155 5.15701 5.9255C5.82438 5.90137 6.45622 5.61871 6.91901 5.13727C7.38179 4.65582 7.63927 4.0133 7.63701 3.3455C7.63701 1.9155 6.48701 0.765503 5.05701 0.765503C4.37275 0.765503 3.71652 1.03732 3.23268 1.52117C2.74883 2.00501 2.47701 2.66124 2.47701 3.3455C2.48701 4.7455 3.58701 5.8755 4.96701 5.9255V5.9255Z" stroke="#3F63F4" stroke-width="1.5" stroke-linecap="round" stroke-linejoin="round"/>
<path d="M10.9982 13.3945C10.9353 13.3845 10.8712 13.3845 10.8082 13.3945C10.1409 13.3704 9.50903 13.0877 9.04624 12.6063C8.58346 12.1248 8.32599 11.4823 8.32824 10.8145C8.32824 9.3845 9.47824 8.2345 10.9082 8.2345C11.5925 8.2345 12.2487 8.50632 12.7326 8.99016C13.2164 9.47401 13.4882 10.1302 13.4882 10.8145C13.4782 12.2145 12.3782 13.3545 10.9982 13.3945ZM8.08924 16.5455C6.67924 17.4855 6.67924 19.0255 8.08924 19.9655C9.68924 21.0355 12.3092 21.0355 13.9092 19.9655C15.3192 19.0255 15.3192 17.4855 13.9092 16.5455C12.3192 15.4855 9.68924 15.4855 8.08924 16.5455Z" stroke="#0B1775" stroke-width="1.5" stroke-linecap="round" stroke-linejoin="round"/>
</svg>
