<svg width="22" height="22" viewBox="0 0 22 22" fill="none" xmlns="http://www.w3.org/2000/svg">
<path d="M15.968 13.4409C17.338 13.6709 18.848 13.4309 19.908 12.7209C21.318 11.7809 21.318 10.2409 19.908 9.30095C18.838 8.59095 17.308 8.35095 15.938 8.59095M5.99701 13.4409C4.62701 13.6709 3.11701 13.4309 2.05701 12.7209C0.647012 11.7809 0.647012 10.2409 2.05701 9.30095C3.12701 8.59095 4.65701 8.35095 6.02701 8.59095M16.998 6.16095C16.9351 6.15094 16.871 6.15094 16.808 6.16095C16.1406 6.13681 15.5088 5.85415 15.046 5.37271C14.5832 4.89126 14.3258 4.24875 14.328 3.58095C14.328 2.15095 15.478 1.00095 16.908 1.00095C17.5923 1.00095 18.2485 1.27277 18.7323 1.75661C19.2162 2.24045 19.488 2.89669 19.488 3.58095C19.4862 4.24922 19.226 4.8909 18.7619 5.37176C18.2978 5.85261 17.6658 6.13539 16.998 6.16095V6.16095ZM4.96701 6.16095C5.02701 6.15095 5.09701 6.15095 5.15701 6.16095C5.82438 6.13681 6.45622 5.85415 6.91901 5.37271C7.38179 4.89126 7.63927 4.24875 7.63701 3.58095C7.63701 2.15095 6.48701 1.00095 5.05701 1.00095C4.37275 1.00095 3.71652 1.27277 3.23268 1.75661C2.74883 2.24045 2.47701 2.89669 2.47701 3.58095C2.48701 4.98095 3.58701 6.11095 4.96701 6.16095V6.16095Z" stroke="#3F63F4" stroke-width="1.5" stroke-linecap="round" stroke-linejoin="round"/>
<path d="M10.9982 13.6299C10.9353 13.6199 10.8712 13.6199 10.8082 13.6299C10.1409 13.6058 9.50903 13.3231 9.04624 12.8417C8.58346 12.3603 8.32599 11.7177 8.32824 11.0499C8.32824 9.61994 9.47824 8.46994 10.9082 8.46994C11.5925 8.46994 12.2487 8.74176 12.7326 9.22561C13.2164 9.70945 13.4882 10.3657 13.4882 11.0499C13.4782 12.4499 12.3782 13.5899 10.9982 13.6299ZM8.08924 16.7809C6.67924 17.7209 6.67924 19.2609 8.08924 20.2009C9.68924 21.2709 12.3092 21.2709 13.9092 20.2009C15.3192 19.2609 15.3192 17.7209 13.9092 16.7809C12.3192 15.7209 9.68924 15.7209 8.08924 16.7809Z" stroke="#0B1775" stroke-width="1.5" stroke-linecap="round" stroke-linejoin="round"/>
</svg>
