<svg width="31" height="32" viewBox="0 0 31 32" fill="none" xmlns="http://www.w3.org/2000/svg">
<path d="M13.1047 1.73002L2.70967 10.055C1.53967 10.985 0.789665 12.95 1.04467 14.42L3.03967 26.36C3.39967 28.49 5.43967 30.215 7.59967 30.215H24.3997C26.5447 30.215 28.5997 28.475 28.9597 26.36L30.9547 14.42C31.1947 12.95 30.4447 10.985 29.2897 10.055L18.8947 1.74502C17.2897 0.455018 14.6947 0.455018 13.1047 1.73002V1.73002Z" fill="#0B1775"/>
<path d="M16 20.75C16.9946 20.75 17.9484 20.3549 18.6517 19.6517C19.3549 18.9484 19.75 17.9946 19.75 17C19.75 16.0054 19.3549 15.0516 18.6517 14.3483C17.9484 13.6451 16.9946 13.25 16 13.25C15.0054 13.25 14.0516 13.6451 13.3483 14.3483C12.6451 15.0516 12.25 16.0054 12.25 17C12.25 17.9946 12.6451 18.9484 13.3483 19.6517C14.0516 20.3549 15.0054 20.75 16 20.75Z" fill="#CECFD5"/>
</svg>
