<svg width="23" height="22" viewBox="0 0 23 22" fill="none" xmlns="http://www.w3.org/2000/svg">
<path d="M11.1631 20C12.4106 20 13.646 19.7543 14.7986 19.2769C15.9512 18.7994 16.9984 18.0997 17.8806 17.2175C18.7628 16.3354 19.4625 15.2881 19.9399 14.1355C20.4174 12.9829 20.6631 11.7476 20.6631 10.5C20.6631 9.25244 20.4174 8.0171 19.9399 6.86451C19.4625 5.71191 18.7628 4.66464 17.8806 3.78249C16.9984 2.90033 15.9512 2.20056 14.7986 1.72314C13.646 1.24572 12.4106 1 11.1631 1C8.64353 1 6.22717 2.00089 4.44557 3.78249C2.66398 5.56408 1.66309 7.98044 1.66309 10.5C1.66309 13.0196 2.66398 15.4359 4.44557 17.2175C6.22717 18.9991 8.64353 20 11.1631 20Z" stroke="#0B1775" stroke-width="1.5" stroke-linecap="round" stroke-linejoin="round"/>
<path d="M21.6631 21L19.6631 19" stroke="#0A0C2B" stroke-opacity="0.5" stroke-width="1.5" stroke-linecap="round" stroke-linejoin="round"/>
</svg>
