<svg width="30" height="30" viewBox="0 0 30 30" fill="none" xmlns="http://www.w3.org/2000/svg">
<path opacity="0.4" d="M22.675 27.0237C21.575 27.3487 20.275 27.4987 18.75 27.4987H11.25C9.72501 27.4987 8.42501 27.3487 7.32501 27.0237C7.60001 23.7737 10.9375 21.2112 15 21.2112C19.0625 21.2112 22.4 23.7737 22.675 27.0237Z" stroke="#0A0C2B" stroke-opacity="0.5" stroke-width="1.5" stroke-linecap="round" stroke-linejoin="round"/>
<path d="M27.5 11.25V18.75C27.5 23.475 26.075 26.0625 22.675 27.025C21.575 27.35 20.275 27.5 18.75 27.5H11.25C9.725 27.5 8.425 27.35 7.325 27.025C3.925 26.0625 2.5 23.475 2.5 18.75V11.25C2.5 5 5 2.5 11.25 2.5H18.75C25 2.5 27.5 5 27.5 11.25Z" stroke="#0B1775" stroke-width="1.5" stroke-linecap="round" stroke-linejoin="round"/>
<path opacity="0.4" d="M19.4775 13.225C19.4775 15.7 17.4775 17.7125 15.0025 17.7125C12.5275 17.7125 10.5275 15.7 10.5275 13.225C10.5275 10.75 12.5275 8.75 15.0025 8.75C17.4775 8.75 19.4775 10.75 19.4775 13.225Z" stroke="#0A0C2B" stroke-opacity="0.5" stroke-width="1.5" stroke-linecap="round" stroke-linejoin="round"/>
</svg>
